<svg width="211" height="35" viewBox="0 0 211 35" fill="none" xmlns="http://www.w3.org/2000/svg">
<g clip-path="url(#clip0_56_38)">
<path fill-rule="evenodd" clip-rule="evenodd" d="M56.6077 22.4994C55.179 29.4637 48.9293 34.8207 41.6075 34.8207H18.5718C11.0718 34.8207 4.8215 29.4637 3.57178 22.4994H56.6077Z" fill="#6A502B"/>
<path fill-rule="evenodd" clip-rule="evenodd" d="M18.5718 0H41.6075C48.9293 0 55.1788 5.35715 56.6077 12.4998H3.57178C4.82168 5.35697 11.0718 0 18.5718 0Z" fill="#6A502B"/>
<path fill-rule="evenodd" clip-rule="evenodd" d="M2.14278 15.1788H57.8573C60.7143 15.1788 60.7143 19.643 57.8573 19.643H2.14278C-0.714259 19.643 -0.714259 15.1788 2.14278 15.1788Z" fill="#6A502B"/>
</g>
<path d="M88.2695 22.2422C88.2695 23.2578 88.0234 24.1406 87.5312 24.8906C87.0391 25.6406 86.3203 26.2188 85.375 26.625C84.4375 27.0312 83.2969 27.2344 81.9531 27.2344C81.3594 27.2344 80.7773 27.1953 80.207 27.1172C79.6445 27.0391 79.1016 26.9258 78.5781 26.7773C78.0625 26.6211 77.5703 26.4297 77.1016 26.2031V22.8281C77.9141 23.1875 78.7578 23.5117 79.6328 23.8008C80.5078 24.0898 81.375 24.2344 82.2344 24.2344C82.8281 24.2344 83.3047 24.1562 83.6641 24C84.0312 23.8438 84.2969 23.6289 84.4609 23.3555C84.625 23.082 84.707 22.7695 84.707 22.418C84.707 21.9883 84.5625 21.6211 84.2734 21.3164C83.9844 21.0117 83.5859 20.7266 83.0781 20.4609C82.5781 20.1953 82.0117 19.9102 81.3789 19.6055C80.9805 19.418 80.5469 19.1914 80.0781 18.9258C79.6094 18.6523 79.1641 18.3203 78.7422 17.9297C78.3203 17.5391 77.9727 17.0664 77.6992 16.5117C77.4336 15.9492 77.3008 15.2773 77.3008 14.4961C77.3008 13.4727 77.5352 12.5977 78.0039 11.8711C78.4727 11.1445 79.1406 10.5898 80.0078 10.207C80.8828 9.81641 81.9141 9.62109 83.1016 9.62109C83.9922 9.62109 84.8398 9.72656 85.6445 9.9375C86.457 10.1406 87.3047 10.4375 88.1875 10.8281L87.0156 13.6523C86.2266 13.332 85.5195 13.0859 84.8945 12.9141C84.2695 12.7344 83.6328 12.6445 82.9844 12.6445C82.5312 12.6445 82.1445 12.7188 81.8242 12.8672C81.5039 13.0078 81.2617 13.2109 81.0977 13.4766C80.9336 13.7344 80.8516 14.0352 80.8516 14.3789C80.8516 14.7852 80.9688 15.1289 81.2031 15.4102C81.4453 15.6836 81.8047 15.9492 82.2812 16.207C82.7656 16.4648 83.3672 16.7656 84.0859 17.1094C84.9609 17.5234 85.707 17.957 86.3242 18.4102C86.9492 18.8555 87.4297 19.3828 87.7656 19.9922C88.1016 20.5938 88.2695 21.3438 88.2695 22.2422ZM100.535 13.6523C101.934 13.6523 103.059 14.0352 103.91 14.8008C104.762 15.5586 105.188 16.7773 105.188 18.457V27H101.613V19.3477C101.613 18.4102 101.441 17.7031 101.098 17.2266C100.762 16.75 100.23 16.5117 99.5039 16.5117C98.4102 16.5117 97.6641 16.8828 97.2656 17.625C96.8672 18.3672 96.668 19.4375 96.668 20.8359V27H93.0938V13.8984H95.8242L96.3047 15.5742H96.5039C96.7852 15.1211 97.1328 14.7539 97.5469 14.4727C97.9688 14.1914 98.4336 13.9844 98.9414 13.8516C99.457 13.7187 99.9883 13.6523 100.535 13.6523ZM116.234 13.6289C117.992 13.6289 119.34 14.0117 120.277 14.7773C121.215 15.543 121.684 16.707 121.684 18.2695V27H119.188L118.496 25.2187H118.402C118.027 25.6875 117.645 26.0703 117.254 26.3672C116.863 26.6641 116.414 26.8828 115.906 27.0234C115.398 27.1641 114.781 27.2344 114.055 27.2344C113.281 27.2344 112.586 27.0859 111.969 26.7891C111.359 26.4922 110.879 26.0391 110.527 25.4297C110.176 24.8125 110 24.0312 110 23.0859C110 21.6953 110.488 20.6719 111.465 20.0156C112.441 19.3516 113.906 18.9844 115.859 18.9141L118.133 18.8437V18.2695C118.133 17.582 117.953 17.0781 117.594 16.7578C117.234 16.4375 116.734 16.2773 116.094 16.2773C115.461 16.2773 114.84 16.3672 114.23 16.5469C113.621 16.7266 113.012 16.9531 112.402 17.2266L111.219 14.8125C111.914 14.4453 112.691 14.1562 113.551 13.9453C114.418 13.7344 115.312 13.6289 116.234 13.6289ZM118.133 20.9297L116.75 20.9766C115.594 21.0078 114.789 21.2148 114.336 21.5977C113.891 21.9805 113.668 22.4844 113.668 23.1094C113.668 23.6562 113.828 24.0469 114.148 24.2812C114.469 24.5078 114.887 24.6211 115.402 24.6211C116.168 24.6211 116.812 24.3945 117.336 23.9414C117.867 23.4883 118.133 22.8437 118.133 22.0078V20.9297ZM132.695 27.2344C131.398 27.2344 130.293 27 129.379 26.5312C128.465 26.0547 127.77 25.3203 127.293 24.3281C126.816 23.3359 126.578 22.0664 126.578 20.5195C126.578 18.918 126.848 17.6133 127.387 16.6055C127.934 15.5898 128.688 14.8437 129.648 14.3672C130.617 13.8906 131.738 13.6523 133.012 13.6523C133.918 13.6523 134.699 13.7422 135.355 13.9219C136.02 14.0937 136.598 14.3008 137.09 14.543L136.035 17.3086C135.473 17.082 134.949 16.8984 134.465 16.7578C133.98 16.6094 133.496 16.5352 133.012 16.5352C132.387 16.5352 131.867 16.6836 131.453 16.9805C131.039 17.2695 130.73 17.707 130.527 18.293C130.324 18.8789 130.223 19.6133 130.223 20.4961C130.223 21.3633 130.332 22.082 130.551 22.6523C130.77 23.2227 131.086 23.6484 131.5 23.9297C131.914 24.2031 132.418 24.3398 133.012 24.3398C133.754 24.3398 134.414 24.2422 134.992 24.0469C135.57 23.8437 136.133 23.5625 136.68 23.2031V26.2617C136.133 26.6055 135.559 26.8516 134.957 27C134.363 27.1562 133.609 27.2344 132.695 27.2344ZM145.301 8.76562V16.9219C145.301 17.4141 145.281 17.9062 145.242 18.3984C145.203 18.8906 145.16 19.3828 145.113 19.875H145.16C145.402 19.5312 145.648 19.1914 145.898 18.8555C146.156 18.5195 146.43 18.1953 146.719 17.8828L150.387 13.8984H154.418L149.215 19.582L154.734 27H150.609L146.836 21.6914L145.301 22.9219V27H141.727V8.76562H145.301ZM167.125 9.86719H172.457C174.738 9.86719 176.465 10.1875 177.637 10.8281C178.809 11.4687 179.395 12.5937 179.395 14.2031C179.395 14.8516 179.289 15.4375 179.078 15.9609C178.875 16.4844 178.578 16.9141 178.188 17.25C177.797 17.5859 177.32 17.8047 176.758 17.9062V18.0234C177.328 18.1406 177.844 18.3437 178.305 18.6328C178.766 18.9141 179.133 19.3281 179.406 19.875C179.688 20.4141 179.828 21.1328 179.828 22.0312C179.828 23.0703 179.574 23.9609 179.066 24.7031C178.559 25.4453 177.832 26.0156 176.887 26.4141C175.949 26.8047 174.832 27 173.535 27L167.125 27V9.86719ZM170.758 16.6523H172.867C173.922 16.6523 174.652 16.4883 175.059 16.1602C175.465 15.8242 175.668 15.332 175.668 14.6836C175.668 14.0273 175.426 13.5586 174.941 13.2773C174.465 12.9883 173.707 12.8437 172.668 12.8437H170.758V16.6523ZM170.758 19.5352V24L173.125 24C174.219 24 174.98 23.7891 175.41 23.3672C175.84 22.9453 176.055 22.3789 176.055 21.668C176.055 21.2461 175.961 20.875 175.773 20.5547C175.586 20.2344 175.27 19.9844 174.824 19.8047C174.387 19.625 173.781 19.5352 173.008 19.5352L170.758 19.5352ZM190.336 13.6289C192.094 13.6289 193.441 14.0117 194.379 14.7773C195.316 15.543 195.785 16.707 195.785 18.2695V27H193.289L192.598 25.2187H192.504C192.129 25.6875 191.746 26.0703 191.355 26.3672C190.965 26.6641 190.516 26.8828 190.008 27.0234C189.5 27.1641 188.883 27.2344 188.156 27.2344C187.383 27.2344 186.688 27.0859 186.07 26.7891C185.461 26.4922 184.98 26.0391 184.629 25.4297C184.277 24.8125 184.102 24.0312 184.102 23.0859C184.102 21.6953 184.59 20.6719 185.566 20.0156C186.543 19.3516 188.008 18.9844 189.961 18.9141L192.234 18.8437V18.2695C192.234 17.582 192.055 17.0781 191.695 16.7578C191.336 16.4375 190.836 16.2773 190.195 16.2773C189.562 16.2773 188.941 16.3672 188.332 16.5469C187.723 16.7266 187.113 16.9531 186.504 17.2266L185.32 14.8125C186.016 14.4453 186.793 14.1562 187.652 13.9453C188.52 13.7344 189.414 13.6289 190.336 13.6289ZM192.234 20.9297L190.852 20.9766C189.695 21.0078 188.891 21.2148 188.438 21.5977C187.992 21.9805 187.77 22.4844 187.77 23.1094C187.77 23.6562 187.93 24.0469 188.25 24.2812C188.57 24.5078 188.988 24.6211 189.504 24.6211C190.27 24.6211 190.914 24.3945 191.438 23.9414C191.969 23.4883 192.234 22.8437 192.234 22.0078V20.9297ZM208.789 13.6523C208.969 13.6523 209.176 13.6641 209.41 13.6875C209.652 13.7031 209.848 13.7266 209.996 13.7578L209.727 17.1094C209.609 17.0703 209.441 17.043 209.223 17.0273C209.012 17.0039 208.828 16.9922 208.672 16.9922C208.211 16.9922 207.762 17.0508 207.324 17.168C206.895 17.2852 206.508 17.4766 206.164 17.7422C205.82 18 205.547 18.3437 205.344 18.7734C205.148 19.1953 205.051 19.7148 205.051 20.332V27H201.477V13.8984H204.184L204.711 16.1016H204.887C205.145 15.6562 205.465 15.25 205.848 14.8828C206.238 14.5078 206.68 14.2109 207.172 13.9922C207.672 13.7656 208.211 13.6523 208.789 13.6523Z" fill="#6A502B"/>
<defs>
<clipPath id="clip0_56_38">
<rect width="60" height="35" fill="white"/>
</clipPath>
</defs>
</svg>
