<svg width="24" height="24" viewBox="0 0 24 24" fill="none" xmlns="http://www.w3.org/2000/svg">
<path fill-rule="evenodd" clip-rule="evenodd" d="M17.0781 4.58697C13.6287 1.13769 8.03621 1.13769 4.5871 4.58697C1.13799 8.03625 1.13781 13.6289 4.5871 17.078C8.03638 20.5274 13.629 20.5274 17.0781 17.078C20.5274 13.6289 20.5274 8.03608 17.0781 4.58697V4.58697ZM3.17282 3.17269C7.40308 -1.05756 14.262 -1.05756 18.4924 3.17269C22.4844 7.16471 22.7094 13.4973 19.1674 17.753L23.7072 22.2928C24.0976 22.6834 24.0976 23.3165 23.7072 23.7069C23.3166 24.0975 22.6835 24.0975 22.2929 23.7069L17.7531 19.1671C13.4974 22.7091 7.16493 22.4843 3.17282 18.4923C-1.05761 14.2618 -1.05761 7.40308 3.17282 3.17269V3.17269ZM7.19416 5.77993C7.58472 6.17049 7.58472 6.80365 7.19416 7.1942C5.18473 9.20362 5.18473 12.4613 7.19416 14.4708C7.58472 14.8614 7.58472 15.4946 7.19416 15.8851C6.80376 16.2757 6.17044 16.2757 5.78006 15.8851C2.98953 13.0948 2.98953 8.57033 5.78006 5.77993C6.17046 5.38953 6.80377 5.38953 7.19416 5.77993V5.77993Z" fill="#6A502B"/>
</svg>
